<?xml version="1.0" encoding="UTF-8"?>
<svg xmlns="http://www.w3.org/2000/svg" width="1600" height="400" viewBox="0 0 1600 400">
  <defs>
    <linearGradient id="bg-gradient" x1="0" y1="0" x2="1" y2="1">
      <stop offset="0%" stop-color="#F9FBFF"/>
      <stop offset="100%" stop-color="#E3EDFF"/>
    </linearGradient>
    <linearGradient id="wave-gradient" x1="0" y1="0" x2="1" y2="0">
      <stop offset="0%" stop-color="#EEF4FF"/>
      <stop offset="50%" stop-color="#F7FAFF"/>
      <stop offset="100%" stop-color="#E6EEFB"/>
    </linearGradient>
    <filter id="soft-blur" x="-25%" y="-25%" width="150%" height="150%">
      <feGaussianBlur stdDeviation="40" />
    </filter>
  </defs>
  <rect width="100%" height="100%" fill="url(#bg-gradient)"/>
  <path d="M0 140 C220 80 420 90 660 140 C900 190 1100 200 1340 160 C1460 140 1540 110 1600 90 L1600 0 L0 0 Z"
        fill="url(#wave-gradient)" opacity="0.5"/>
  <path d="M0 320 C240 280 460 270 700 310 C940 350 1140 360 1380 320 C1480 300 1560 270 1600 250 L1600 400 L0 400 Z"
        fill="url(#wave-gradient)" opacity="0.35"/>
  <g filter="url(#soft-blur)" opacity="0.6">
    <circle cx="280" cy="90" r="160" fill="#D9E7FF"/>
    <circle cx="1220" cy="330" r="230" fill="#EEF4FF"/>
    <circle cx="880" cy="140" r="140" fill="#F4F6FA"/>
  </g>

  <g>
    <text x="731.00" y="242.00"
          text-anchor="middle"
          font-family="SF Pro Display, SF Pro Text, -apple-system, BlinkMacSystemFont, Helvetica Neue, Helvetica, Arial, sans-serif"
          font-size="120"
          font-weight="800"
          letter-spacing="0.5"
          fill="#2563EB">
      mRNNTorch
    </text>

    <g transform="translate(1083.80,140.00) scale(5.0000)">
      <path d="M12.005.04l-7.03 7.03a9.832 9.832 0 0 0 0 13.975 9.833 9.833 0 0 0 13.976 0c3.97-3.887 3.972-10.171.084-13.976l-1.738 1.737c2.895 2.895 2.895 7.608 0 10.503-2.894 2.894-7.608 2.894-10.503 0C3.9 16.414 3.9 11.7 6.794 8.806l4.632-4.631.58-.663zm3.556 3.886a1.323 1.323 0 0 0-1.323 1.323 1.323 1.323 0 0 0 1.323 1.323 1.323 1.323 0 0 0 1.323-1.323 1.323 1.323 0 0 0-1.323-1.323z" fill="#2563EB"/>
    </g>
  </g>
</svg>
